Coordinates
version=1
nRows=10
nColumns=22
inDegrees=yes

Units are S.I. units (second, meters, Newtons, ...)
If the header above contains a line with 'inDegrees', this indicates whether rotational values are in degrees (yes) or radians (no).

endheader
time	pelvis_tilt	pelvis_list	pelvis_rotation	pelvis_tx	pelvis_ty	pelvis_tz	hip_flexion_r	hip_adduction_r	hip_rotation_r	knee_angle_r	ankle_angle_r	subtalar_angle_r	hip_flexion_l	hip_adduction_l	hip_rotation_l	knee_angle_l	ankle_angle_l	subtalar_angle_l	lumbar_extension	lumbar_bending	lumbar_rotation
      1.26000000	     -9.14526297	      3.33807168	    -45.50775138	     -1.48433701	      0.88354120	     -0.59261323	      7.51223222	      2.07532036	      3.35460324	     -6.85310229	     12.73331469	     -1.56518185	     10.67969985	     -6.16252630	     -4.38852956	    -17.13046478	     20.34757070	     -0.99014141	      3.63348093	      3.45420293	     14.37965065
      1.27000000	     -9.16721878	      3.36960747	    -45.62098573	     -1.48349939	      0.88343921	     -0.59246688	      7.50213392	      2.03484092	      3.46704073	     -6.83452113	     12.75693234	     -1.49833791	     10.65245163	     -6.11487924	     -4.43587246	    -17.16438110	     20.46769036	     -1.12356293	      3.65153469	      3.46076579	     14.48911814
      1.28000000	     -9.19472993	      3.40252250	    -45.68224205	     -1.48249548	      0.88332011	     -0.59235261	      7.47659549	      1.98538223	      3.50955111	     -6.79762255	     12.78388606	     -1.48139562	     10.61787205	     -6.05275747	     -4.41297796	    -17.16295145	     20.60276213	     -1.14887171	      3.68449965	      3.46944098	     14.52814007
      1.29000000	     -9.22049623	      3.43825039	    -45.74751646	     -1.48142497	      0.88319611	     -0.59223965	      7.44761424	      1.92869627	      3.57554136	     -6.75957466	     12.81738999	     -1.45291343	     10.57456757	     -5.98635266	     -4.42364428	    -17.14957452	     20.74137556	     -1.19234379	      3.71520617	      3.47703677	     14.56665130
      1.30000000	     -9.22021601	      3.47178087	    -45.84818420	     -1.48033139	      0.88311227	     -0.59210927	      7.40474365	      1.85344328	      3.69095963	     -6.73501009	     12.85864037	     -1.32895705	     10.49193447	     -5.90623014	     -4.50452158	    -17.11770790	     20.83456636	     -1.38705205	      3.71352049	      3.46790542	     14.65418495
      1.31000000	     -9.26121128	      3.51016517	    -45.87308068	     -1.47910932	      0.88296293	     -0.59206740	      7.38463839	      1.79327752	      3.71060070	     -6.70238836	     12.89191187	     -1.31038143	     10.46216630	     -5.83794840	     -4.48634871	    -17.09446855	     20.95804827	     -1.40958856	      3.75259882	      3.48374049	     14.65904776
      1.32000000	     -9.30065080	      3.55650473	    -45.89416848	     -1.47784491	      0.88280054	     -0.59204662	      7.37041270	      1.72170696	      3.73895403	     -6.67630946	     12.93878802	     -1.27964832	     10.44112099	     -5.76202223	     -4.48196274	    -17.08029407	     21.08309457	     -1.44700961	      3.78976924	      3.48981956	     14.66534936
      1.33000000	     -9.34458167	      3.64068972	    -45.91841803	     -1.47657517	      0.88259027	     -0.59208807	      7.42374948	      1.62067453	      3.76100711	     -6.71309376	     13.03416020	     -1.10039193	     10.46375865	     -5.65799280	     -4.48618876	    -17.08438630	     21.17704477	     -1.66035635	      3.84991218	      3.46891104	     14.68197830
      1.34000000	     -9.39634912	      3.68414737	    -45.91276379	     -1.47520099	      0.88241155	     -0.59211224	      7.40923895	      1.55128211	      3.76144822	     -6.68228783	     13.06991523	     -1.08111767	     10.45557913	     -5.58738123	     -4.47081858	    -17.07793178	     21.30112725	     -1.67454708	      3.88455665	      3.48004691	     14.67423032
      1.35000000	     -9.44586428	      3.74045045	    -45.89041777	     -1.47377354	      0.88220826	     -0.59216481	      7.41007435	      1.46511743	      3.75407524	     -6.67277660	     13.12938931	     -1.04404240	     10.46556579	     -5.50092213	     -4.44491026	    -17.08778862	     21.43357272	     -1.70173620	      3.92330902	      3.47279674	     14.65969899
